<?xml version="1.0" encoding="utf-8"?>
<!-- Generator: Adobe Illustrator 16.0.4, SVG Export Plug-In . SVG Version: 6.00 Build 0)  -->
<!DOCTYPE svg PUBLIC "-//W3C//DTD SVG 1.1//EN" "http://www.w3.org/Graphics/SVG/1.1/DTD/svg11.dtd">
<svg version="1.1" id="Layer_1" xmlns="http://www.w3.org/2000/svg" xmlns:xlink="http://www.w3.org/1999/xlink" x="0px" y="0px"
	 width="2664px" height="792px" viewBox="0 0 2664 792" enable-background="new 0 0 2664 792" xml:space="preserve">
<g>
	<path fill-rule="evenodd" clip-rule="evenodd" d="M183.322,423.566c0,2.216,0,3.918,0,5.621c0,28.979,0.026,57.957-0.038,86.936
		c-0.006,3.166-0.127,6.436-0.888,9.482c-2.247,8.994-10.423,14.498-20.401,14.117c-9.204-0.354-16.997-7.031-18.507-16.01
		c-0.382-2.27-0.495-4.609-0.496-6.916c-0.024-85.196-0.023-170.393-0.017-255.589c0-15.488,7.467-23.021,22.842-23.033
		c22.023-0.018,44.047-0.05,66.07,0.009c24.29,0.065,46.738,6.001,65.986,21.476c21.53,17.309,32.212,40.231,33.375,67.502
		c1.661,38.943-14.43,67.969-49.485,85.921c-0.508,0.261-0.972,0.61-1.69,1.067c0.83,1.394,1.604,2.746,2.424,4.068
		c18.481,29.762,36.951,59.529,55.466,89.271c3.464,5.564,6.017,11.365,4.321,18.041c-1.812,7.135-6.118,12.098-13.611,13.625
		c-7.893,1.609-15.014,0.225-20.567-6.072c-1.424-1.613-2.536-3.521-3.68-5.363c-20.856-33.568-41.73-67.127-62.477-100.766
		c-1.651-2.678-3.333-3.618-6.518-3.57c-15.645,0.24-31.295,0.153-46.942,0.18C186.93,423.568,185.372,423.566,183.322,423.566z
		 M183.607,274.545c0,38.146,0,74.849,0,111.549c0.667,0.195,1.071,0.416,1.474,0.415c17.226-0.018,34.464,0.325,51.675-0.203
		c16.625-0.51,31.366-6.108,43.053-18.564c24.036-25.618,15.48-79.913-30.935-90.595
		C227.244,276.285,205.614,275.422,183.607,274.545z"/>
	<path fill-rule="evenodd" clip-rule="evenodd" d="M1047.739,361.904c0-2.743,0-4.27,0-5.795c0-32.451-0.036-64.902,0.02-97.353
		c0.024-14.325,10.384-22.723,24.429-19.981c8.155,1.593,13.873,7.819,14.723,16.087c0.133,1.294,0.146,2.604,0.146,3.907
		c-0.007,59.541,0.265,119.085-0.126,178.624c-0.329,50.049-34.925,92.156-83.917,101.727
		c-65.483,12.787-118.089-29.697-126.8-84.832c-6.63-41.965,3.668-79.092,37.679-106.825c38.398-31.31,96.104-26.404,129.941,10.21
		C1044.863,358.787,1045.891,359.901,1047.739,361.904z M1049.384,432.979c-0.433-4.077-0.594-9.331-1.598-14.419
		c-4.958-25.141-18.709-43.763-43.053-52.474c-24.672-8.828-48.263-5.217-68.282,12.366c-22.126,19.435-28.232,44.803-22.265,72.691
		c10.786,50.42,61.593,67.008,98.109,47.836C1038.081,485.441,1048.303,462.221,1049.384,432.979z"/>
	<path fill-rule="evenodd" clip-rule="evenodd" d="M1182.137,447.834c1.246,4.625,1.956,8.766,3.458,12.596
		c11.173,28.496,32.325,43.967,62.558,47.146c19.727,2.076,37.463-3.539,53.721-14.553c9.774-6.625,20.485-5.17,27.077,3.488
		c5.685,7.469,4.757,15.584-2.656,21.342c-14.725,11.436-31.607,18.314-49.781,21.359c-36.864,6.172-70.456-1.314-98.305-27.307
		c-23.105-21.562-32.22-49.16-31.651-80.311c0.475-26.01,7.619-49.755,24.835-69.698c22.219-25.74,51.08-35.904,84.447-34.735
		c21.461,0.751,40.997,6.941,57.544,21.119c18.488,15.841,27.981,36.516,31.727,60.103c1.064,6.697,1.531,13.531,1.723,20.318
		c0.35,12.428-6.293,19.064-18.849,19.109c-20.716,0.072-41.434,0.021-62.151,0.021c-25.932,0-51.865,0-77.798,0
		C1186.332,447.834,1184.626,447.834,1182.137,447.834z M1311.222,416.869c-0.328-2.095-0.55-3.801-0.864-5.49
		c-5.827-31.225-28.172-50.599-58.807-51c-32.324-0.424-56.299,16.083-65.907,45.475c-1.141,3.492-1.848,7.129-2.837,11.016
		C1225.889,416.869,1268.265,416.869,1311.222,416.869z"/>
	<path fill-rule="evenodd" clip-rule="evenodd" d="M407.51,447.834c0.874,3.605,1.471,6.691,2.372,9.686
		c8.34,27.699,34.206,47.93,63.078,50.15c19.924,1.531,37.78-3.506,54.171-14.623c9.795-6.645,20.476-5.221,27.088,3.428
		c5.708,7.465,4.788,15.574-2.586,21.355c-12.401,9.723-26.607,15.715-41.73,19.629c-26.907,6.965-53.211,4.848-78.466-6.615
		c-38.678-17.559-61.05-55.615-59.623-99.637c0.832-25.692,7.654-49.181,24.565-68.943c22.334-26.099,51.434-36.354,85.145-35.078
		c21.157,0.801,40.424,6.916,56.793,20.781c18.703,15.843,28.312,36.625,32.084,60.372c1.086,6.84,1.543,13.821,1.731,20.753
		c0.324,11.889-6.378,18.57-18.37,18.719c-7.967,0.1-15.936,0.023-23.904,0.023c-38.827,0-77.653,0-116.479,0
		C411.668,447.834,409.956,447.834,407.51,447.834z M408.602,416.724c42.75,0,85.208,0,127.908,0
		c-0.305-1.899-0.529-3.46-0.809-5.011c-5.018-27.728-23.092-46.892-49.463-50.46c-9.54-1.291-19.762-0.533-29.252,1.375
		C431.365,367.78,410.225,391.973,408.602,416.724z"/>
	<path fill-rule="evenodd" clip-rule="evenodd" d="M2223.516,516.645c-1.768,1.465-2.977,2.439-4.156,3.449
		c-33.447,28.631-88.793,29.125-122.494,0.855c-17.188-14.418-26.562-33.355-29.869-55.285c-1.229-8.125-1.709-16.428-1.762-24.656
		c-0.197-31-0.105-62.002-0.061-93.005c0.014-8.791,4.832-15.832,12.434-18.59c8.152-2.957,17.168-0.652,22.561,5.714
		c3.598,4.247,4.383,9.257,4.375,14.616c-0.055,30.132-0.094,60.266,0.031,90.398c0.025,5.916,0.352,11.898,1.285,17.734
		c4.465,27.949,23.816,45.666,52.033,47.877c14.117,1.104,27.816-0.338,40.289-7.725c16.578-9.818,25.787-23.898,25.676-43.721
		c-0.197-34.479-0.078-68.958-0.016-103.436c0.008-3.16,0.121-6.439,0.947-9.454c2.404-8.755,10.232-13.574,20.527-13.076
		c9.018,0.436,15.617,6.01,17.361,14.78c0.365,1.833,0.566,3.729,0.57,5.597c0.027,56.789,0.051,113.578,0.004,170.367
		c-0.01,14.848-11.627,23.77-25.611,19.865c-7.395-2.068-12.637-8.168-13.551-15.824
		C2223.867,521.27,2223.756,519.402,2223.516,516.645z"/>
	<path fill-rule="evenodd" clip-rule="evenodd" d="M661.831,352.318c11.494-10.522,23.376-17.953,37.176-21.614
		c30.005-7.959,58.825-5.34,84.708,12.753c23.577,16.48,34.766,40.607,36.106,68.665c1.347,28.19,0.723,56.476,0.935,84.718
		c0.056,7.389,0.067,14.779-0.008,22.166c-0.131,12.879-7.828,21.035-19.767,21.057c-11.935,0.023-19.757-8.146-19.788-21
		c-0.072-30.424,0.131-60.85-0.131-91.271c-0.068-7.91-0.491-16.045-2.383-23.67c-5.817-23.438-21.624-36.665-45.058-40.724
		c-17.213-2.981-33.825-1.002-48.848,8.719c-14.944,9.67-22.924,23.216-22.866,41.336c0.112,35.495,0.073,70.991,0.009,106.485
		c-0.024,13.334-8.916,21.25-22.138,19.979c-9.42-0.906-16.556-8.318-17.096-17.77c-0.05-0.867-0.042-1.738-0.042-2.607
		c-0.002-56.791-0.019-113.584,0.01-170.375c0.007-14.606,11-23.239,25.212-19.926c7.864,1.833,13.342,8.183,13.95,16.283
		C661.948,347.352,661.831,349.204,661.831,352.318z"/>
	<path fill-rule="evenodd" clip-rule="evenodd" d="M2407.785,326.88c18.484,0.341,36.305,3.474,52.826,12.228
		c8.934,4.733,16.76,10.842,23.113,18.767c4.492,5.602,6.547,11.637,3.045,18.483c-3.107,6.079-10.055,9.891-17.625,8.335
		c-5.344-1.098-11.422-2.938-15.215-6.519c-15.975-15.085-35.232-17.976-55.723-16.23c-6.924,0.59-13.861,2.873-20.426,5.352
		c-6.693,2.527-11.361,7.51-11.885,15.209c-0.576,8.483,2.375,15.369,9.732,19.978c9.744,6.103,20.771,8.697,31.791,11.135
		c17.945,3.97,36.041,7.432,52.605,15.88c13.936,7.106,25.525,16.495,30.334,32.272c7.232,23.74-1.75,49.346-22.572,63.986
		c-11.76,8.27-24.955,12.729-39.129,14.361c-31.01,3.574-60.676-0.635-88.229-15.984c-4.896-2.727-9.508-6.129-13.789-9.766
		c-9.143-7.766-10.154-18.639-2.895-26.748c8.678-9.689,20.756-10.309,30.125-2.42c6.24,5.254,12.967,10.305,20.246,13.871
		c18.449,9.043,38.047,9.676,57.607,4.393c5.895-1.594,11.74-5.146,16.381-9.205c8.049-7.049,8.48-18.525,2.166-27.213
		c-4.512-6.207-10.691-10.404-17.863-12.502c-12.193-3.568-24.564-6.549-36.922-9.525c-14.547-3.504-28.855-7.619-41.648-15.664
		c-16.607-10.441-26.25-25.028-26.012-45.189c0.191-16.295,6.971-29.311,19.863-39.206c14.148-10.859,30.57-15.455,47.951-17.333
		C2399.668,327.189,2403.734,327.119,2407.785,326.88z"/>
	<path fill-rule="evenodd" clip-rule="evenodd" d="M1438.703,503.361c2.486,0,4.064,0,5.643,0c29.996,0,59.99-0.021,89.988,0.033
		c2.877,0.006,5.814,0.201,8.623,0.795c5.74,1.213,9.639,4.768,10.846,10.555c0.699,3.354,1.021,6.926,0.697,10.322
		c-0.865,9.037-6.277,13.984-15.404,14.6c-2.164,0.146-4.344,0.096-6.518,0.096c-41.152,0.004-82.307,0.004-123.461,0.004
		c-1.014,0-2.027-0.006-3.043-0.002c-7.109,0.027-14.054-0.973-17.23-8.322c-3.388-7.836-3.345-15.895,2.076-23.068
		c35.113-46.453,70.287-92.859,105.434-139.288c0.85-1.124,1.635-2.296,2.943-4.142c-2.164,0-3.682,0-5.199,0
		c-29.416,0-58.832,0-88.248,0c-1.16,0-2.318,0.003-3.479-0.001c-15.631-0.064-23.104-10.441-18.459-25.588
		c1.629-5.31,5.107-8.76,10.484-9.92c3.082-0.666,6.312-0.881,9.477-0.885c42.023-0.055,84.047-0.034,126.07-0.039
		c7.59,0,15.381,0.308,18.887,8.487c3.645,8.502,2.758,16.736-3.125,24.49c-34.754,45.816-69.35,91.753-103.992,137.651
		C1440.863,500.264,1440.072,501.436,1438.703,503.361z"/>
	<path fill-rule="evenodd" clip-rule="evenodd" d="M1676.188,483.453c4.322-9.404,8.422-18.324,12.52-27.246
		c17.629-38.381,35.24-76.77,52.891-115.139c4.732-10.29,14.617-14.358,24.75-10.312c10.338,4.127,14.307,13.599,9.596,23.684
		c-8.998,19.266-18.182,38.443-27.291,57.657c-18.031,38.035-36.051,76.074-54.107,114.098
		c-5.055,10.646-12.451,14.826-22.422,12.664c-7.148-1.553-11.381-6.59-14.395-12.797c-4.738-9.76-9.326-19.588-13.977-29.391
		c-22.316-47.049-44.656-94.086-66.934-141.152c-6.268-13.24,3.166-27.181,17.748-26.175c7.537,0.52,12.316,4.969,15.41,11.672
		c12.846,27.843,25.779,55.647,38.674,83.468c8.455,18.241,16.902,36.485,25.363,54.724
		C1674.6,480.473,1675.283,481.691,1676.188,483.453z"/>
	<path fill-rule="evenodd" clip-rule="evenodd" d="M1793.896,436.908c0.561-51.977,37.289-98.933,87.641-110.819
		c2.055-0.485,4.9,0.097,6.699,1.245c4.629,2.947,8.854,6.521,13.283,9.786c2.564,1.891,3.08,4.03,1.18,6.682
		c-0.674,0.938-1.309,1.92-1.836,2.947c-4.629,9.007-11.266,14.547-21.305,18.364c-35.529,13.506-55.012,51.704-46.805,88.889
		c1.512,6.852,1.453,6.947-5.363,9.129c-7.029,2.248-14.053,4.508-21.084,6.75c-5.6,1.783-6.955,1.213-8.029-4.732
		C1796.586,455.777,1795.334,446.326,1793.896,436.908z"/>
	<path fill-rule="evenodd" clip-rule="evenodd" d="M2019.973,436.658c-1.801,10.375-3.623,20.748-5.387,31.129
		c-0.514,3.018-2.221,4.766-5.041,5.871c-4.852,1.896-9.639,3.963-14.379,6.117c-3.105,1.41-5.266,0.834-6.713-2.326
		c-0.723-1.578-1.488-3.156-2.441-4.598c-5.07-7.666-6.08-15.41-4.439-24.854c6.609-38.108-16.75-74.909-53.766-86.484
		c-5.869-1.836-6.111-2.27-4.789-8.339c1.6-7.352,3.191-14.707,4.771-22.063c1.297-6.05,2.346-6.684,8.334-4.971
		C1985.221,340.192,2019.148,385.396,2019.973,436.658z"/>
	<path fill-rule="evenodd" clip-rule="evenodd" d="M1903.727,548.195c-29.178-0.691-56.594-12.184-79.164-35.086
		c-2.006-2.037-2.865-4.016-2.387-6.926c0.867-5.279,1.424-10.617,1.947-15.945c0.314-3.191,1.787-4.705,5.055-4.51
		c6.07,0.363,12.158,0.502,18.211,1.057c1.527,0.141,3.203,1.225,4.371,2.338c31.537,30.027,76.926,30.506,108.99,0.973
		c2.846-2.619,4.941-2.738,7.738-0.078c5.982,5.688,12.182,11.145,18.262,16.732c3.811,3.502,3.809,4.828,0.164,8.508
		C1966.393,535.979,1936.52,548.23,1903.727,548.195z"/>
</g>
</svg>
