<?xml version="1.0" encoding="utf-8"?>
<!-- Generator: Adobe Illustrator 16.0.4, SVG Export Plug-In . SVG Version: 6.00 Build 0)  -->
<!DOCTYPE svg PUBLIC "-//W3C//DTD SVG 1.1//EN" "http://www.w3.org/Graphics/SVG/1.1/DTD/svg11.dtd">
<svg version="1.1" id="Layer_1" xmlns="http://www.w3.org/2000/svg" xmlns:xlink="http://www.w3.org/1999/xlink" x="0px" y="0px"
	 width="792px" height="792px" viewBox="0 0 792 792" enable-background="new 0 0 792 792" xml:space="preserve">
<g>
	<path fill-rule="evenodd" clip-rule="evenodd" d="M119.045,491.978c-6.021,0.063-9.44-2.787-11.039-8.57
		c-8.581-31.066-12.339-62.725-10.725-94.899c3.139-62.574,23.059-119.345,60.811-169.41
		c44.944-59.603,104.208-97.595,176.854-114.65c2.162-0.508,5.254-0.201,6.969,1.035c14.587,10.515,29.029,21.238,43.347,32.119
		c4.408,3.351,5.132,8.17,2.097,12.916c-9.598,15.005-19.304,29.945-29.25,44.719c-1.409,2.091-4.185,3.826-6.67,4.55
		c-86.247,25.152-138.139,81.842-155.05,169.944c-5.398,28.127-3.232,56.412,3.801,84.234c2.224,8.798,0.308,12.253-8.281,15.001
		c-22.652,7.249-45.304,14.498-67.964,21.722C122.058,491.289,120.109,491.7,119.045,491.978z"/>
	<path fill-rule="evenodd" clip-rule="evenodd" d="M205.773,532.107c11.134,0.74,22.292,1.254,33.386,2.38
		c2.829,0.287,6.052,1.919,8.096,3.941c46.253,45.781,101.902,66.974,166.692,62.158c49.21-3.658,91.786-23.467,127.597-57.538
		c8.104-7.71,11.373-7.769,19.735-0.146c17.115,15.599,34.239,31.188,51.373,46.768c7.346,6.68,7.57,11.603,0.607,18.494
		c-50.524,49.998-110.922,80.351-181.657,87.716c-101.704,10.59-188.078-22.133-258.888-95.846c-1.52-1.582-2.814-4.39-2.605-6.463
		c1.813-18.05,3.875-36.077,6.142-54.075c0.635-5.043,4.605-7.793,10.032-7.839c6.494-0.057,12.99-0.014,19.485-0.014
		C205.77,531.799,205.771,531.953,205.773,532.107z"/>
	<path fill-rule="evenodd" clip-rule="evenodd" d="M697.747,399.801c-1.178,30.921-5.512,61.128-14.899,90.523
		c-0.71,2.222-2.715,4.771-4.778,5.7c-16.22,7.301-32.559,14.345-48.957,21.238c-5.123,2.154-9.642,0.45-12.245-4.566
		c-8.199-15.791-16.29-31.643-24.087-47.634c-1.161-2.382-1.312-5.867-0.589-8.469c31.075-111.725-33.03-225.926-144.812-257.734
		c-8.203-2.335-10.426-6.02-8.619-14.378c5.095-23.571,10.196-47.142,15.307-70.708c1.909-8.81,6.441-11.51,15.311-9.163
		c116.435,30.831,204.153,127.127,223.212,245.576C695.228,366.576,696.072,383.255,697.747,399.801z"/>
</g>
</svg>
